<?xml version="1.0" encoding="UTF-8"?>
<!-- Generator: Adobe Illustrator 19.0.0, SVG Export Plug-In . SVG Version: 6.00 Build 0)  -->
<svg enable-background="new 0 0 511.656 511.656" version="1.1" viewBox="0 0 511.66 511.66" xml:space="preserve" xmlns="http://www.w3.org/2000/svg" xmlns:cc="http://creativecommons.org/ns#" xmlns:dc="http://purl.org/dc/elements/1.1/" xmlns:rdf="http://www.w3.org/1999/02/22-rdf-syntax-ns#"><metadata><rdf:RDF><cc:Work rdf:about=""><dc:format>image/svg+xml</dc:format><dc:type rdf:resource="http://purl.org/dc/dcmitype/StillImage"/><dc:title/></cc:Work></rdf:RDF></metadata>
		<path d="m248.07 456.99h-0.078c-2.209 0-3.958 1.779-3.958 3.997 0 2.201 1.831 3.997 4.037 3.997 2.209 0 3.997-1.796 3.997-3.997 0-2.218-1.789-3.997-3.998-3.997z"/>
		<path d="m258.86 234.51c-1.456-1.679-3.974-1.858-5.641-0.406l-147.9 127.92c-1.671 1.437-1.85 3.966-0.41 5.637 0.792 0.905 1.904 1.374 3.025 1.374 0.928 0 1.858-0.312 2.617-0.967l147.9-127.92c1.671-1.445 1.85-3.967 0.41-5.637z"/>
		<path d="m406.34 362.02-147.9-127.92c-1.667-1.452-4.189-1.273-5.641 0.406-1.441 1.671-1.261 4.193 0.41 5.637l147.9 127.92c0.758 0.656 1.686 0.968 2.615 0.968 1.125 0 2.234-0.469 3.03-1.375 1.437-1.671 1.258-4.2-0.414-5.637z"/>
		<path d="m258.86 250.5c-1.456-1.671-3.974-1.85-5.641-0.406l-147.9 127.92c-1.671 1.437-1.85 3.966-0.41 5.637 0.792 0.905 1.904 1.374 3.025 1.374 0.928 0 1.858-0.312 2.617-0.968l147.9-127.92c1.671-1.445 1.85-3.967 0.41-5.637z"/>
		<path d="m406.34 378.01-147.9-127.92c-1.667-1.444-4.189-1.265-5.641 0.406-1.441 1.67-1.261 4.192 0.41 5.637l147.9 127.92c0.758 0.656 1.686 0.968 2.615 0.968 1.125 0 2.234-0.468 3.03-1.374 1.437-1.671 1.258-4.2-0.414-5.637z"/>
		<path d="m107.93 361.04c-2.21 0-3.998 1.795-3.998 3.997v15.989c0 2.217 1.788 3.997 3.998 3.997 2.209 0 3.997-1.78 3.997-3.997v-15.989c0-2.202-1.788-3.997-3.997-3.997z"/>
		<path d="m403.73 361.04c-2.209 0-3.997 1.795-3.997 3.997v15.989c0 2.217 1.788 3.997 3.997 3.997 2.21 0 3.998-1.78 3.998-3.997v-15.989c0-2.202-1.788-3.997-3.998-3.997z"/>
		<path d="m139.91 365.34c-2.21 0-3.998 1.796-3.998 3.998v99.636c0 2.202 1.788 3.997 3.998 3.997 2.209 0 3.997-1.794 3.997-3.997v-99.636c0-2.202-1.788-3.998-3.997-3.998z"/>
		<path d="m371.75 365.34c-2.209 0-3.997 1.796-3.997 3.998v99.636c0 2.202 1.788 3.997 3.997 3.997 2.21 0 3.998-1.794 3.998-3.997v-99.636c0-2.202-1.788-3.998-3.998-3.998z"/>
		<path d="m219.85 480.97h-87.941c-2.209 0-3.997 1.78-3.997 3.997 0 2.202 1.788 3.998 3.997 3.998h87.941c2.209 0 3.997-1.796 3.997-3.998 0-2.217-1.788-3.997-3.997-3.997z"/>
		<path d="m379.74 480.97h-87.941c-2.209 0-3.997 1.78-3.997 3.997 0 2.202 1.788 3.998 3.997 3.998h87.941c2.209 0 3.997-1.796 3.997-3.998 0-2.217-1.788-3.997-3.997-3.997z"/>
		<path d="m235.84 417.02c-2.21 0-3.998 1.78-3.998 3.997v63.957c0 2.202 1.788 3.998 3.998 3.998 2.209 0 3.997-1.796 3.997-3.998v-63.957c0-2.217-1.788-3.997-3.997-3.997z"/>
		<path d="m275.81 417.02h-39.973c-2.21 0-3.998 1.78-3.998 3.997 0 2.202 1.788 3.998 3.998 3.998h39.973c2.21 0 3.998-1.796 3.998-3.998 0-2.217-1.788-3.997-3.998-3.997z"/>
		<path d="m275.81 417.02c-2.209 0-3.997 1.78-3.997 3.997v63.957c0 2.202 1.788 3.998 3.997 3.998 2.21 0 3.998-1.796 3.998-3.998v-63.957c0-2.217-1.788-3.997-3.998-3.997z"/>
		<path d="m131.91 464.98c-2.209 0-3.997 1.78-3.997 3.997v15.989c0 2.202 1.788 3.998 3.997 3.998 2.21 0 3.998-1.796 3.998-3.998v-15.989c0-2.217-1.788-3.997-3.998-3.997z"/>
		<path d="m147.9 464.98h-15.989c-2.209 0-3.997 1.78-3.997 3.997 0 2.202 1.788 3.997 3.997 3.997h15.989c2.21 0 3.998-1.794 3.998-3.997 0-2.217-1.788-3.997-3.998-3.997z"/>
		<path d="m379.74 464.98c-2.21 0-3.997 1.78-3.997 3.997v15.989c0 2.202 1.787 3.998 3.997 3.998 2.209 0 3.997-1.796 3.997-3.998v-15.989c0-2.217-1.788-3.997-3.997-3.997z"/>
		<path d="m379.74 464.98h-15.989c-2.209 0-3.998 1.78-3.998 3.997 0 2.202 1.789 3.997 3.998 3.997h15.989c2.209 0 3.997-1.794 3.997-3.997 0-2.217-1.788-3.997-3.997-3.997z"/>
		<path d="m283.81 496.96h-55.963c-2.209 0-3.997 1.78-3.997 3.997 0 2.202 1.788 3.997 3.997 3.997h55.963c2.209 0 3.998-1.795 3.997-3.997 0-2.217-1.788-3.997-3.997-3.997z"/>
		<path d="m347.77 377.04h-47.968c-2.21 0-3.998 1.78-3.998 3.998v47.968c0 2.201 1.788 3.997 3.998 3.997h47.968c2.209 0 3.998-1.796 3.997-3.997v-47.968c0-2.218-1.788-3.998-3.997-3.998zm-3.996 47.969h-39.974v-39.974h39.974v39.974z"/>
		<path d="m211.86 377.04h-47.968c-2.209 0-3.997 1.78-3.997 3.998v47.968c0 2.201 1.788 3.997 3.997 3.997h47.968c2.21 0 3.998-1.796 3.998-3.997v-47.968c0-2.218-1.788-3.998-3.998-3.998zm-3.997 47.969h-39.973v-39.974h39.973v39.974z"/>
		<path d="m187.87 385.04c-2.21 0-3.998 1.78-3.998 3.997v31.979c0 2.202 1.788 3.998 3.998 3.998 2.209 0 3.997-1.796 3.997-3.998v-31.979c0-2.217-1.788-3.997-3.997-3.997z"/>
		<path d="m323.78 385.04c-2.209 0-3.997 1.78-3.997 3.997v31.979c0 2.202 1.788 3.998 3.997 3.998 2.21 0 3.997-1.796 3.997-3.998v-31.979c0-2.217-1.787-3.997-3.997-3.997z"/>
		<path d="m339.77 401.02h-31.979c-2.209 0-3.997 1.78-3.997 3.997 0 2.202 1.788 3.997 3.997 3.997h31.979c2.21 0 3.998-1.795 3.998-3.997 0-2.217-1.788-3.997-3.998-3.997z"/>
		<path d="m203.86 401.02h-31.979c-2.21 0-3.998 1.78-3.998 3.997 0 2.202 1.788 3.997 3.998 3.997h31.979c2.209 0 3.997-1.795 3.997-3.997 0-2.217-1.788-3.997-3.997-3.997z"/>
		<path d="m255.83 321.08c-13.226 0-23.984 10.758-23.984 23.983s10.758 23.984 23.984 23.984 23.984-10.759 23.984-23.984c0-13.224-10.758-23.983-23.984-23.983zm0 39.972c-8.818 0-15.989-7.183-15.989-15.99 0-8.822 7.171-15.988 15.989-15.988 8.822 0 15.989 7.166 15.989 15.988 0 8.806-7.167 15.99-15.989 15.99z"/>
		<path d="m255.83 329.08c-2.209 0-3.997 1.779-3.997 3.997v23.983c0 2.202 1.788 3.998 3.997 3.998s3.997-1.796 3.997-3.998v-23.983c0-2.218-1.788-3.997-3.997-3.997z"/>
		<path d="m267.82 341.06h-23.984c-2.209 0-3.997 1.78-3.997 3.997 0 2.202 1.788 3.998 3.997 3.998h23.984c2.209 0 3.997-1.795 3.997-3.998 0-2.217-1.788-3.997-3.997-3.997z"/>
		<path d="m19.986 472.98c-2.209 0-3.997 1.78-3.997 3.998v7.994c0 2.202 1.788 3.998 3.997 3.998 2.21 0 3.998-1.796 3.998-3.998v-7.994c0-2.218-1.788-3.998-3.998-3.998z"/>
		<path d="m3.997 472.98c-2.209 0-3.997 1.78-3.997 3.998v7.994c0 2.202 1.788 3.998 3.997 3.998 2.21 0 3.998-1.796 3.998-3.998v-7.994c0-2.218-1.788-3.998-3.998-3.998z"/>
		<path d="m35.975 472.98c-2.209 0-3.997 1.78-3.997 3.998v7.994c0 2.202 1.788 3.998 3.997 3.998 2.21 0 3.998-1.796 3.998-3.998v-7.994c0-2.218-1.788-3.998-3.998-3.998z"/>
		<path d="m51.965 472.98c-2.209 0-3.997 1.78-3.997 3.998v7.994c0 2.202 1.788 3.998 3.997 3.998 2.21 0 3.997-1.796 3.998-3.998v-7.994c0-2.218-1.788-3.998-3.998-3.998z"/>
		<path d="m67.954 472.98c-2.209 0-3.997 1.78-3.997 3.998v7.994c0 2.202 1.788 3.998 3.997 3.998 2.21 0 3.998-1.796 3.998-3.998v-7.994c0-2.218-1.788-3.998-3.998-3.998z"/>
		<path d="m83.943 472.98c-2.209 0-3.997 1.78-3.997 3.998v7.994c0 2.202 1.788 3.998 3.997 3.998 2.21 0 3.998-1.796 3.998-3.998v-7.994c0-2.218-1.788-3.998-3.998-3.998z"/>
		<path d="m99.932 472.98c-2.209 0-3.997 1.78-3.997 3.998v7.994c0 2.202 1.788 3.998 3.997 3.998 2.21 0 3.998-1.796 3.998-3.998v-7.994c0-2.218-1.788-3.998-3.998-3.998z"/>
		<path d="m115.92 472.98c-2.209 0-3.997 1.78-3.997 3.998v7.994c0 2.202 1.788 3.998 3.997 3.998 2.21 0 3.997-1.796 3.998-3.998v-7.994c0-2.218-1.788-3.998-3.998-3.998z"/>
		<path d="m103.87 451.15c-0.952-14.569-13.112-26.139-27.922-26.139-5.718 0-11.285 1.794-15.989 5.105-4.704-3.31-10.27-5.105-15.989-5.105-14.811 0-26.971 11.571-27.923 26.139-4.911 2.811-8.053 8.057-8.053 13.834 0 2.201 1.788 3.997 3.998 3.997 2.209 0 3.997-1.796 3.997-3.997 0-3.373 2.163-6.387 5.383-7.511 1.652-0.577 2.667-2.732 2.612-4.481 0-11.023 8.966-19.986 19.987-19.986 4.867 0 9.595 1.843 13.315 5.184 1.515 1.375 3.833 1.375 5.348 0 3.719-3.341 8.447-5.184 13.315-5.184 11.019 0 19.986 8.963 19.998 19.736l3.95 0.625-4.028 0.203c-0.058 1.749 1.027 3.326 2.678 3.903 3.22 1.124 5.383 4.138 5.383 7.511 0 2.201 1.788 3.997 3.998 3.997 2.209 0 3.997-1.796 3.995-3.997 0-5.777-3.142-11.023-8.053-13.834z"/>
		<path d="m495.6 451.15c-0.952-14.569-13.108-26.139-27.919-26.139-5.715 0-11.289 1.794-15.988 5.105-11.227-7.916-27.693-5.98-36.819 4.185-1.475 1.639-1.342 4.169 0.304 5.652 1.649 1.483 4.178 1.342 5.646-0.312 7.05-7.854 20.142-8.697 28.199-1.453 1.515 1.375 3.825 1.375 5.341 0 3.723-3.341 8.447-5.184 13.318-5.184 11.024 0 19.987 8.963 20.003 19.736l3.95 0.625-4.028 0.203c-0.062 1.749 1.023 3.326 2.67 3.903 3.225 1.124 5.387 4.138 5.387 7.511 0 2.201 1.788 3.997 3.997 3.997 2.21 0 3.998-1.796 3.997-3.995 0-5.777-3.139-11.023-8.058-13.834z"/>
		<path d="m395.73 472.98c-2.209 0-3.997 1.78-3.997 3.998v7.994c0 2.202 1.788 3.998 3.997 3.998s3.997-1.796 3.997-3.998v-7.994c0-2.218-1.788-3.998-3.997-3.998z"/>
		<path d="m411.72 472.98c-2.21 0-3.997 1.78-3.997 3.998v7.994c0 2.202 1.787 3.998 3.997 3.998 2.208 0 3.997-1.796 3.997-3.998v-7.994c0-2.218-1.788-3.998-3.997-3.998z"/>
		<path d="m427.71 472.98c-2.209 0-3.997 1.78-3.997 3.998v7.994c0 2.202 1.788 3.998 3.997 3.998s3.997-1.796 3.997-3.998v-7.994c0-2.218-1.788-3.998-3.997-3.998z"/>
		<path d="m443.7 472.98c-2.21 0-3.997 1.78-3.997 3.998v7.994c0 2.202 1.787 3.998 3.997 3.998s3.997-1.796 3.997-3.998v-7.994c0-2.218-1.787-3.998-3.997-3.998z"/>
		<path d="m459.69 472.98c-2.209 0-3.997 1.78-3.997 3.998v7.994c0 2.202 1.788 3.998 3.997 3.998s3.997-1.796 3.997-3.998v-7.994c0-2.218-1.788-3.998-3.997-3.998z"/>
		<path d="m475.68 472.98c-2.21 0-3.997 1.78-3.997 3.998v7.994c0 2.202 1.787 3.998 3.997 3.998 2.209 0 3.997-1.796 3.997-3.998v-7.994c0-2.218-1.787-3.998-3.997-3.998z"/>
		<path d="m491.67 472.98c-2.209 0-3.997 1.78-3.997 3.998v7.994c0 2.202 1.788 3.998 3.997 3.998s3.997-1.796 3.997-3.998v-7.994c0-2.218-1.788-3.998-3.997-3.998z"/>
		<path d="m507.66 472.98c-2.21 0-3.997 1.78-3.997 3.998v7.994c0 2.202 1.787 3.998 3.997 3.998s3.997-1.796 3.997-3.998v-7.994c0-2.218-1.787-3.998-3.997-3.998z"/>
		<path d="m171.88 273.11c-2.21 0-3.998 1.78-3.998 3.997v32.619c0 2.201 1.788 3.997 3.998 3.997 2.209 0 3.997-1.795 3.997-3.997v-32.619c0-2.217-1.788-3.997-3.997-3.997z"/>
		<path d="m155.9 273.11c-2.21 0-3.998 1.78-3.998 3.997v46.438c0 2.218 1.788 3.997 3.998 3.997 2.209 0 3.997-1.779 3.997-3.997v-46.438c0-2.217-1.788-3.997-3.997-3.997z"/>
		<path d="m175.88 273.11h-23.984c-2.21 0-3.998 1.78-3.998 3.997 0 2.202 1.789 3.997 3.998 3.997h23.984c2.209 0 3.997-1.795 3.997-3.997 0-2.217-1.788-3.997-3.997-3.997z"/>
		<path d="m387.74 385.04c-2.21 0-3.998 1.78-3.998 3.997v55.963c0 2.201 1.788 3.997 3.998 3.997 2.209 0 3.997-1.796 3.997-3.997v-55.963c0-2.217-1.788-3.997-3.997-3.997z"/>
		<path d="m395.73 456.99h-7.994c-2.21 0-3.998 1.779-3.998 3.997 0 2.201 1.788 3.997 3.998 3.997h7.994c2.209 0 3.997-1.796 3.997-3.997 0-2.218-1.788-3.997-3.997-3.997z"/>
		<path d="m395.73 441c-2.209 0-3.997 1.78-3.997 3.998v15.989c0 2.201 1.788 3.997 3.997 3.997s3.997-1.796 3.997-3.997v-15.989c0-2.218-1.788-3.998-3.997-3.998z"/>
		<path d="m395.73 441h-7.994c-2.21 0-3.998 1.78-3.998 3.998 0 2.201 1.788 3.997 3.998 3.997h7.994c2.209 0 3.997-1.796 3.997-3.997 0-2.218-1.788-3.998-3.997-3.998z"/>
		<path d="m255.88 197.45c-2.323-0.258-4.021 1.733-4.052 3.942-0.059 4.161-1.726 8.088-4.685 11.063-6.23 6.229-16.379 6.237-22.625 0-6.23-6.23-6.226-16.38 8e-3 -22.626 1.562-1.561 1.562-4.09 0-5.652-1.561-1.562-4.09-1.562-5.652 0-9.353 9.362-9.357 24.585-8e-3 33.931 4.672 4.677 10.816 7.011 16.961 7.011 6.144 0 12.292-2.335 16.976-7.018 4.439-4.458 6.93-10.353 7.019-16.599 0.032-2.209-1.733-4.021-3.942-4.052z"/>
		<path d="m227.79 80.502c-4.38-3.888-10.036-6.035-15.931-6.035-13.225 0-23.983 10.767-23.983 24 0 13.218 10.758 23.968 23.983 23.968 2.21 0 3.998-1.787 3.998-3.998 0-2.209-1.788-3.997-3.998-3.997-8.818 0-15.989-7.167-15.989-15.974 0-8.822 7.171-16.005 15.989-16.005 3.931 0 7.702 1.429 10.614 4.021 1.652 1.453 4.181 1.312 5.645-0.335 1.468-1.647 1.319-4.177-0.328-5.645z"/>
		<path d="m191.87 137.18c-8.818 0-15.989 7.183-15.989 16.005 0 6.363 3.763 12.109 9.583 14.638 0.519 0.227 1.062 0.336 1.592 0.336 1.546 0 3.014-0.898 3.67-2.404 0.882-2.023-0.047-4.38-2.069-5.255-2.905-1.265-4.782-4.138-4.782-7.315 0-4.419 3.588-8.01 7.995-8.01 2.209 0 3.997-1.788 3.997-3.997 0-2.21-1.788-3.998-3.997-3.998z"/>
		<path d="m196.09 105.65c-1.382-0.305-2.799-0.453-4.216-0.453-11.02 0-19.986 8.97-19.986 20.002 0 11.008 8.966 19.971 19.986 19.971 2.209 0 3.997-1.788 3.997-3.995 0-2.21-1.788-3.998-3.997-3.998-6.613 0-11.992-5.372-11.992-11.977-4e-3 -7.479 7.268-13.272 14.521-11.742 2.171 0.491 4.286-0.899 4.751-3.061 0.465-2.155-0.905-4.286-3.064-4.747z"/>
		<path d="m239.84 57.23c-11.019 0-19.986 8.97-19.986 20.002 0 11.008 8.966 19.971 19.986 19.971 2.209 0 3.997-1.787 3.997-3.997s-1.788-3.998-3.997-3.998c-6.613 0-11.992-5.371-11.992-11.976 0-6.62 5.379-12.007 11.992-12.007s11.992 5.386 11.992 12.007c0 2.21 1.788 3.998 3.997 3.998s3.997-1.789 3.997-3.998c0-11.031-8.966-20.002-19.986-20.002z"/>
		<path d="m234.47 154.54c-6.058-6.051-14.088-9.384-22.614-9.384h-8e-3c-8.53 0-16.555 3.333-22.598 9.384-12.472 12.468-12.48 32.767-0.012 45.235 6.043 6.035 14.26 9.369 22.68 9.369 1.624 0 3.256-0.125 4.885-0.376 2.178-0.343 3.672-2.38 3.333-4.567-0.339-2.177-2.331-3.661-4.567-3.333-7.527 1.163-15.268-1.343-20.682-6.746-9.345-9.352-9.341-24.577 0.02-33.93 4.532-4.543 10.547-7.042 16.941-7.042h4e-3c6.395 0 12.418 2.499 16.966 7.042 1.561 1.562 4.094 1.562 5.656 0 1.558-1.561 1.558-4.091-4e-3 -5.652z"/>
		<path d="m292.78 184.18c-1.561-1.562-4.091-1.562-5.653 0-1.561 1.561-1.561 4.09 0 5.652 6.238 6.246 6.238 16.396 8e-3 22.626-6.229 6.23-16.379 6.23-22.617 8e-3 -2.966-2.982-4.633-6.909-4.692-11.071-0.031-2.209-1.823-4.161-4.052-3.942-2.209 0.031-3.973 1.843-3.942 4.052 0.089 6.246 2.58 12.14 7.026 16.606 4.681 4.677 10.821 7.011 16.973 7.011 6.137 0 12.281-2.335 16.957-7.011 9.352-9.346 9.345-24.57-8e-3 -33.931z"/>
		<path d="m299.8 74.467c-5.895 0-11.555 2.147-15.927 6.035-1.655 1.468-1.796 3.998-0.328 5.645 1.452 1.647 3.982 1.787 5.637 0.335 2.92-2.592 6.682-4.021 10.618-4.021 8.822 0 15.989 7.183 15.989 16.005 0 8.807-7.167 15.974-15.989 15.974-2.21 0-3.998 1.788-3.998 3.997 0 2.21 1.788 3.998 3.998 3.998 13.225 0 23.983-10.75 23.983-23.968 0-13.234-10.757-24-23.983-24z"/>
		<path d="m319.78 137.18c-2.209 0-3.997 1.788-3.997 3.998 0 2.209 1.788 3.997 3.997 3.997 4.403 0 7.994 3.591 7.994 8.01 0 3.177-1.873 6.05-4.777 7.315-2.03 0.875-2.951 3.233-2.077 5.255 0.656 1.507 2.124 2.404 3.67 2.404 0.53 0 1.077-0.11 1.592-0.336 5.824-2.529 9.587-8.275 9.587-14.638 0-8.822-7.167-16.005-15.989-16.005z"/>
		<path d="m319.79 105.2c-1.421 0-2.834 0.148-4.216 0.453-2.156 0.461-3.529 2.592-3.061 4.747 0.469 2.163 2.592 3.552 4.747 3.061 7.245-1.53 14.521 4.263 14.521 11.742 0 6.605-5.379 11.977-11.992 11.977-2.209 0-3.997 1.788-3.997 3.998 0 2.209 1.788 3.997 3.997 3.997 11.023 0 19.986-8.963 19.987-19.973 0-11.031-8.963-20.002-19.986-20.002z"/>
		<path d="m271.82 57.229c-11.019 0-19.986 8.97-19.986 20.002 0 2.21 1.788 3.998 3.997 3.998s3.997-1.789 3.997-3.998c0-6.62 5.38-12.007 11.992-12.007s11.992 5.386 11.992 12.007c0 6.605-5.38 11.976-11.992 11.976-2.21 0-3.997 1.788-3.997 3.998s1.787 3.998 3.997 3.998c11.025 0 19.987-8.963 19.986-19.972 0-11.031-8.962-20.002-19.986-20.002z"/>
		<path d="m322.41 154.54c-6.043-6.051-14.069-9.384-22.594-9.384h-0.016c-8.525 0-16.551 3.333-22.609 9.384-1.562 1.561-1.562 4.091 0 5.652 1.56 1.562 4.09 1.562 5.652 0 4.543-4.543 10.57-7.042 16.965-7.042h8e-3c6.386 0 12.405 2.499 16.941 7.042 9.354 9.353 9.362 24.577 0.016 33.93-5.411 5.403-13.132 7.91-20.682 6.746-2.224-0.328-4.223 1.155-4.566 3.333-0.344 2.186 1.155 4.224 3.333 4.567 1.632 0.25 3.256 0.375 4.88 0.375 8.424 0 16.645-3.334 22.688-9.368 12.461-12.468 12.461-32.767-0.016-45.235z"/>
		<path d="m255.83 73.233c-2.209 0-3.997 1.789-3.997 3.998v124.21c0 2.21 1.788 3.998 3.997 3.998s3.997-1.787 3.997-3.998v-124.21c0-2.21-1.788-3.998-3.997-3.998z"/>
		<path d="m267.8 169.15c-5.343 0-8.353-5.708-8.4-5.801-0.985-1.951-3.366-2.764-5.349-1.772-1.974 0.976-2.783 3.38-1.799 5.356 0.207 0.414 5.195 10.212 15.548 10.212 2.209 0 3.997-1.788 3.997-3.997 0-2.21-1.788-3.998-3.997-3.998z"/>
		<path d="m257.58 161.6c-1.956-1.015-4.361-0.203-5.364 1.749-0.031 0.062-3.041 5.801-8.401 5.801-2.209 0-3.997 1.788-3.997 3.998 0 2.209 1.788 3.997 3.997 3.997 10.353 0 15.342-9.798 15.549-10.212 0.98-1.968 0.18-4.341-1.784-5.333z"/>
		<path d="m275.79 121.18c-15.302 0-15.943-10.789-15.966-12.022-0.019-2.195-1.8-3.967-3.997-3.967-2.209 0-3.997 1.789-3.997 3.998 0 6.91 5.008 19.987 23.96 19.987 2.21 0 3.998-1.788 3.998-3.998s-1.788-3.998-3.998-3.998z"/>
		<path d="m255.82 105.21h-0.035c-2.178 0-3.958 1.764-3.997 3.951-0.024 1.225-0.66 12.022-15.966 12.022-2.21 0-3.998 1.788-3.998 3.998 0 2.209 1.788 3.997 3.998 3.997 18.952 0 23.96-13.077 23.96-19.986 0-2.194-1.769-3.959-3.962-3.982z"/>
		<path d="m388.91 137.19h-23.983c-2.21 0-3.997 1.788-3.997 3.998s1.787 3.998 3.997 3.998h23.983c2.21 0 3.998-1.788 3.998-3.998s-1.788-3.998-3.998-3.998z"/>
		<path d="m147.9 137.19h-23.983c-2.21 0-3.998 1.788-3.998 3.998s1.788 3.998 3.998 3.998h23.983c2.21 0 3.998-1.788 3.998-3.998s-1.788-3.998-3.998-3.998z"/>
		<path d="m384.68 94.51c-0.75-2.07-3.045-3.155-5.122-2.39l-22.548 8.198c-2.077 0.749-3.146 3.045-2.389 5.121 0.594 1.624 2.124 2.631 3.756 2.631 0.452 0 0.913-0.078 1.365-0.242l22.548-8.197c2.078-0.749 3.147-3.045 2.39-5.121z"/>
		<path d="m158.2 176.94c-0.753-2.077-3.037-3.155-5.121-2.389l-22.54 8.197c-2.073 0.75-3.147 3.045-2.389 5.122 0.589 1.624 2.124 2.631 3.755 2.631 0.453 0 0.914-0.078 1.366-0.241l22.54-8.198c2.073-0.75 3.147-3.045 2.389-5.122z"/>
		<path d="m360.98 53.458c-1.421-1.686-3.936-1.921-5.629-0.492l-18.387 15.412c-1.686 1.413-1.912 3.935-0.499 5.629 0.796 0.945 1.928 1.429 3.075 1.429 0.906 0 1.812-0.305 2.562-0.937l18.386-15.412c1.694-1.413 1.913-3.935 0.492-5.629z"/>
		<path d="m176.34 208.37c-1.413-1.687-3.927-1.921-5.629-0.492l-18.371 15.419c-1.695 1.421-1.913 3.943-0.492 5.629 0.788 0.946 1.92 1.429 3.064 1.429 0.906 0 1.815-0.304 2.566-0.937l18.37-15.419c1.694-1.421 1.913-3.943 0.492-5.629z"/>
		<path d="m324.66 22.986c-1.913-1.116-4.364-0.445-5.458 1.46l-12.007 20.775c-1.108 1.913-0.453 4.357 1.46 5.458 0.632 0.367 1.319 0.539 1.99 0.539 1.391 0 2.733-0.719 3.467-2l12.008-20.775c1.108-1.913 0.453-4.356-1.46-5.457z"/>
		<path d="m280.12 6.779c-2.178-0.446-4.247 1.069-4.63 3.24l-4.176 23.625c-0.383 2.17 1.069 4.247 3.239 4.629 0.234 0.046 0.469 0.062 0.703 0.062 1.905 0 3.591-1.366 3.927-3.301l4.177-23.625c0.391-2.171-1.061-4.247-3.24-4.63z"/>
		<path d="m241.5 33.651-4.161-23.632c-0.379-2.171-2.475-3.685-4.63-3.24-2.174 0.383-3.626 2.451-3.24 4.63l4.161 23.632c0.34 1.936 2.026 3.302 3.931 3.302 0.23 0 0.464-0.015 0.699-0.063 2.175-0.381 3.627-2.451 3.24-4.629z"/>
		<path d="m205.62 45.237-12-20.783c-1.108-1.913-3.564-2.576-5.461-1.46-1.913 1.101-2.569 3.544-1.464 5.457l12 20.783c0.742 1.281 2.085 1.999 3.467 1.999 0.679 0 1.366-0.172 1.994-0.538 1.913-1.102 2.569-3.545 1.464-5.458z"/>
		<path d="m175.87 68.409-18.386-15.443c-1.694-1.429-4.216-1.195-5.633 0.492-1.421 1.687-1.202 4.208 0.488 5.629l18.386 15.443c0.75 0.632 1.663 0.937 2.569 0.937 1.143 0 2.275-0.484 3.064-1.429 1.421-1.687 1.202-4.208-0.488-5.629z"/>
		<path d="m360.49 223.3-18.386-15.411c-1.694-1.428-4.208-1.195-5.63 0.492-1.42 1.694-1.201 4.216 0.492 5.629l18.387 15.412c0.749 0.633 1.655 0.937 2.561 0.937 1.147 0 2.279-0.484 3.076-1.43 1.413-1.694 1.187-4.216-0.5-5.629z"/>
		<path d="m155.83 100.35-22.563-8.214c-2.06-0.756-4.364 0.313-5.121 2.39-0.757 2.076 0.312 4.364 2.389 5.121l22.563 8.213c0.449 0.164 0.913 0.242 1.366 0.242 1.631 0 3.165-1.007 3.755-2.631 0.757-2.077-0.312-4.364-2.389-5.121z"/>
<g transform="translate(-2.1819 -.54548)">
		<path d="m382.3 182.76-22.548-8.197c-2.084-0.757-4.363 0.312-5.121 2.389-0.757 2.077 0.321 4.372 2.389 5.122l22.548 8.198c0.453 0.164 0.913 0.242 1.366 0.242 1.631 0 3.169-1.007 3.756-2.632 0.756-2.077-0.321-4.372-2.39-5.122z"/>
</g>
</svg>
